#define iconify_width 8
#define iconify_height 8
static unsigned char iconify_bits[] = {
   0x00, 0x00, 0x3c, 0x24, 0x24, 0x3c, 0x00, 0x00 };
