#define max_width 8
#define max_height 8
static unsigned char max_bits[] = {
   0x00, 0x7e, 0x42, 0x42, 0x42, 0x42, 0x7e, 0x00 };
