#define desk_hover_width 8
#define desk_hover_height 8
static unsigned char desk_hover_bits[] = {
   0x00, 0x42, 0x24, 0x00, 0x00, 0x24, 0x42, 0x00 };
