#define shade_toggled_width 8
#define shade_toggled_height 8
static unsigned char shade_toggled_bits[] = {
   0x00, 0x7e, 0x7e, 0x00, 0x00, 0x00, 0x00, 0x00 };
