/* Created with The GIMP */
#define max_width 8
#define max_height 8
static unsigned char max_bits[] = {
   0x7e, 0xff, 0xc3, 0xc3, 0xc3, 0xc3, 0xff, 0x7e };
